<?xml version="1.0" encoding="utf-8"?>
<COLLADA xmlns:xsi="http://www.w3.org/2001/XMLSchema-instance" xmlns:xsd="http://www.w3.org/2001/XMLSchema" version="1.4.1" xmlns="http://www.collada.org/2005/11/COLLADASchema">
    <asset>
        <created>2024-06-01T16:21:31.9357071+02:00</created>
        <modified>2024-06-01T16:21:31.9357091+02:00</modified>
        <unit name="Meter" />
        <contributor>
            <authoring_tool>IONET Exporter</authoring_tool>
        </contributor>
    </asset>
    <library_images>
        <image id="Texture_0_CMP-image" name="Texture_0_CMP">
            <init_from>Texture_0_CMP.png</init_from>
        </image>
        <image id="Texture_0_CMP-image_0" name="Texture_0_CMP">
            <init_from>Texture_0_CMP.png</init_from>
        </image>
    </library_images>
    <library_materials>
        <material id="Joint_0_Object_0_Material_0" name="Joint_0_Object_0_Material_0">
            <instance_effect url="#Joint_0_Object_0_Material_0-effect" />
        </material>
        <material id="Joint_0_Object_1_Material_1" name="Joint_0_Object_1_Material_1">
            <instance_effect url="#Joint_0_Object_1_Material_1-effect" />
        </material>
    </library_materials>
    <library_effects>
        <effect id="Joint_0_Object_0_Material_0-effect" name="Joint_0_Object_0_Material_0">
            <profile_COMMON>
                <newparam sid="Texture_0_CMP-image_surface">
                    <surface type="2D">
                        <init_from>Texture_0_CMP-image</init_from>
                    </surface>
                </newparam>
                <newparam sid="Texture_0_CMP-image_sampler">
                    <sampler2D>
                        <source>Texture_0_CMP-image_surface</source>
                    </sampler2D>
                </newparam>
                <technique sid="standard">
                    <phong>
                        <emission>
                            <color sid="emission">0 0 0 1</color>
                        </emission>
                        <ambient>
                            <color sid="ambient">0.7019608 0.7019608 0.7019608 1</color>
                        </ambient>
                        <diffuse>
                            <color sid="diffuse">1 1 1 1</color>
                            <texture texture="Texture_0_CMP-image_sampler" texcoord="CHANNEL0" />
                        </diffuse>
                        <specular>
                            <color sid="specular">1 1 1 1</color>
                        </specular>
                        <reflective>
                            <color sid="reflective">1 1 1 1</color>
                        </reflective>
                        <shininess>
                            <float sid="shininess">50</float>
                        </shininess>
                        <reflectivity>
                            <float sid="reflectivity">1</float>
                        </reflectivity>
                        <transparency>
                            <float sid="transparency">1</float>
                        </transparency>
                    </phong>
                </technique>
            </profile_COMMON>
        </effect>
        <effect id="Joint_0_Object_1_Material_1-effect" name="Joint_0_Object_1_Material_1">
            <profile_COMMON>
                <newparam sid="Texture_0_CMP-image_0_surface">
                    <surface type="2D">
                        <init_from>Texture_0_CMP-image_0</init_from>
                    </surface>
                </newparam>
                <newparam sid="Texture_0_CMP-image_0_sampler">
                    <sampler2D>
                        <source>Texture_0_CMP-image_0_surface</source>
                    </sampler2D>
                </newparam>
                <technique sid="standard">
                    <phong>
                        <emission>
                            <color sid="emission">0 0 0 1</color>
                        </emission>
                        <ambient>
                            <color sid="ambient">0.7019608 0.7019608 0.7019608 1</color>
                        </ambient>
                        <diffuse>
                            <color sid="diffuse">1 1 1 1</color>
                            <texture texture="Texture_0_CMP-image_0_sampler" texcoord="CHANNEL0" />
                        </diffuse>
                        <specular>
                            <color sid="specular">1 1 1 1</color>
                        </specular>
                        <reflective>
                            <color sid="reflective">1 1 1 1</color>
                        </reflective>
                        <shininess>
                            <float sid="shininess">50</float>
                        </shininess>
                        <reflectivity>
                            <float sid="reflectivity">1</float>
                        </reflectivity>
                        <transparency>
                            <float sid="transparency">1</float>
                        </transparency>
                    </phong>
                </technique>
            </profile_COMMON>
        </effect>
    </library_effects>
    <library_geometries>
        <geometry id="Joint_0_Object_0-geometry" name="Joint_0_Object_0">
            <mesh>
                <source id="Joint_0_Object_0-geometry-POSITION">
                    <float_array id="Joint_0_Object_0-geometry-POSITION-array" count="897">-2.7382812 1.7075193 -3.570312 -2.8754883 1.0834961 -4.6899405 -2.2319336 0.9897461 -3.1308591 0 0.32080126 -5.888183 -0.9916992 0.3745122 -5.9184566 0 1.570801 -6.5493155 2.3549805 4.0102534 -6.079589 2.7324219 3.502441 -6.2958975 2.394043 4.056152 -6.129882 -2.2597656 0.12597704 -4.8627925 -0.96240234 -0.16894484 -5.24707 -1.2631836 -0.35888624 -4.4423823 3.4785156 2.1098633 -6.1655264 2.756836 3.370605 -4.542968 2.6669922 3.7329097 -4.9135733 3.5830078 1.5029297 -5.812011 2.928711 2.4174802 -3.818359 2.8945312 2.6684568 -4.0478506 0 5.3349605 -6.8916 1.1816406 5.1162105 -6.7880845 0 4.473144 -7.18994 2.2294922 4.3037105 -6.260253 2.399414 3.8505855 -6.527343 0 -0.5605464 -4.3051753 0 -0.28320265 -5.1713862 1.2631836 -0.35888624 -4.4423823 2.8862305 2.9160156 -6.3833 3.0761719 1.8417966 -5.9311514 2.890625 1.7338867 -6.1083975 2.8754883 1.0834961 -4.6899405 2.3164062 0.07910204 -4.797851 2.9082031 0.7519536 -5.310058 2.7324219 3.502441 -6.2958975 2.947754 3.2397459 -5.7416983 3.364746 2.6269531 -6.4658194 2.838379 2.8828123 -3.9936519 2.7382812 1.7158201 -3.5317378 3.1503906 2.2055662 -5.239745 -1.2626953 5.4135737 -6.2509756 -1.5380859 4.8642573 -7.9516587 -1.0332031 5.0639644 -8.109373 -2.8891602 3.0117183 -4.2871084 -2.9799805 2.431152 -3.8505855 -2.8945312 2.6684568 -4.0478506 -2.6669922 3.7329097 -4.9135733 -3.4785156 2.1098633 -6.1655264 -3.364746 2.6269531 -6.4658194 2.7583008 3.5258784 -6.367675 -2.928711 2.4174802 -3.818359 0.42822266 5.7543936 -5.454589 0.46826172 5.8564444 -5.489257 0 5.9033194 -5.511718 1.3232422 5.60205 -5.273925 2.8945312 2.6684568 -4.0478506 2.9799805 2.431152 -3.8505855 2.8891602 3.0117183 -4.2871084 2.928711 2.4174802 -3.818359 -3.21875 3.0502927 -6.731444 -2.9799805 2.431152 -3.8505855 -3.5830078 1.5029297 -5.812011 -2.928711 2.4174802 -3.818359 2.0585938 5.02832 -5.136718 2.4160156 4.3315425 -7.551268 1.9741211 4.6870112 -7.808104 2.534668 4.3818355 -4.8740225 2.6987305 3.860351 -4.748534 3.2998047 3.0756834 -6.723143 -3.4785156 2.1098633 -6.1655264 -3.5830078 1.5029297 -5.812011 -3.6738281 1.5263672 -5.8081045 -3.567871 2.1425781 -6.171386 2.9799805 2.431152 -3.8505855 2.928711 2.4174802 -3.818359 3.5830078 1.5029297 -5.812011 -2.8945312 2.6684568 -4.0478506 -2.928711 2.4174802 -3.818359 -3.5830078 1.5029297 -5.812011 -3.6738281 1.5263672 -5.8081045 2.2597656 0.12597704 -4.8627925 2.2861328 0.09179735 -4.8642573 1.2631836 -0.35888624 -4.4423823 0 -0.28320265 -5.1713862 0 -0.5605464 -4.3051753 -2.8139648 3.8959959 -7.2534165 -2.534668 4.339355 -4.9404287 -2.0585938 5.02832 -5.136718 -3.086914 3.481933 -6.9824204 -3.2998047 3.0756834 -6.723143 -2.6987305 3.8315425 -4.790038 -3.4389648 2.6513672 -6.4716787 -2.7929688 3.396484 -4.544921 -3.567871 2.1425781 -6.171386 -2.8891602 3.0117183 -4.2871084 -3.6738281 1.5263672 -5.8081045 -2.9799805 2.431152 -3.8505855 -2.5136719 4.238769 -5.196288 -3.0029297 3.467773 -6.9863267 -2.7529297 3.85791 -7.236815 -1.9921875 4.9458003 -5.7001944 -2.3886719 4.252441 -7.5209947 -1.9511719 4.620605 -7.7773423 -1.0332031 5.0639644 -8.109373 -1.5507812 4.9272456 -7.9843736 -1.0395508 5.125488 -8.141111 -1.5380859 4.8642573 -7.9516587 -1.9741211 4.6870112 -7.808104 -1.9511719 4.620605 -7.7773423 -2.4160156 4.3315425 -7.551268 -2.3886719 4.252441 -7.5209947 -2.8139648 3.8959959 -7.2534165 -2.7529297 3.85791 -7.236815 -3.0029297 3.467773 -6.9863267 -0.5283203 5.15332 -8.190428 -0.5283203 5.216308 -8.222654 0 5.16748 -8.220701 0 5.2324214 -8.253416 0.5283203 5.216308 -8.222654 0.5283203 5.15332 -8.190428 1.0395508 5.125488 -8.141111 1.0332031 5.0639644 -8.109373 1.5507812 4.9272456 -7.9843736 1.5380859 4.8642573 -7.9516587 1.9741211 4.6870112 -7.808104 1.9511719 4.620605 -7.7773423 2.4160156 4.3315425 -7.551268 2.3886719 4.252441 -7.5209947 2.8139648 3.8959959 -7.2534165 2.7529297 3.85791 -7.236815 3.0029297 3.467773 -6.9863267 0.59277344 5.5654287 -6.3164053 0.5283203 5.15332 -8.190428 1.0332031 5.0639644 -8.109373 0 5.6254873 -6.338378 0 5.16748 -8.220701 -0.5283203 5.15332 -8.190428 1.2626953 5.4135737 -6.2509756 1.5380859 4.8642573 -7.9516587 1.9511719 4.620605 -7.7773423 1.3408203 5.670409 -5.3129873 1.5507812 4.9272456 -7.9843736 1.0395508 5.125488 -8.141111 0.46826172 5.8564444 -5.489257 0.5283203 5.216308 -8.222654 0 5.9033194 -5.511718 0 5.2324214 -8.253416 -0.5283203 5.216308 -8.222654 -0.59277344 5.5654287 -6.3164053 3.4389648 2.6513672 -6.4716787 2.7929688 3.396484 -4.544921 3.567871 2.1425781 -6.171386 2.8891602 3.0117183 -4.2871084 3.6738281 1.5263672 -5.8081045 2.9799805 2.431152 -3.8505855 2.6376953 3.79248 -4.720702 2.7929688 3.396484 -4.544921 2.6987305 3.860351 -4.748534 2.7421875 3.3500972 -4.542968 2.8510742 3.0063472 -4.322753 2.5136719 4.238769 -5.196288 2.7529297 3.85791 -7.236815 3.0029297 3.467773 -6.9863267 1.9921875 4.9458003 -5.7001944 2.3886719 4.252441 -7.5209947 -3.364746 2.6269531 -6.4658194 -3.4389648 2.6513672 -6.4716787 -3.2998047 3.0756834 -6.723143 -3.21875 3.0502927 -6.731444 -3.086914 3.481933 -6.9824204 -2.8510742 3.0063472 -4.322753 -2.756836 3.370605 -4.542968 3.21875 3.0502927 -6.731444 2.3549805 4.0102534 -6.079589 2.584961 3.924316 -4.467284 2.8115234 3.1245112 -4.1445303 3.2998047 3.0756834 -6.723143 3.364746 2.6269531 -6.4658194 3.21875 3.0502927 -6.731444 3.4389648 2.6513672 -6.4716787 3.567871 2.1425781 -6.171386 3.086914 3.481933 -6.9824204 -3.1503906 2.2055662 -5.239745 -2.8579102 2.8828123 -3.9936519 -2.8310547 3.1245112 -4.1445303 2.8510742 3.0063472 -4.322753 3.6738281 1.5263672 -5.8081045 3.4785156 2.1098633 -6.1655264 -2.8398438 0.7778325 -5.3613276 -2.6547852 0.7788091 -5.543945 -2.2597656 0.12597704 -4.8627925 -3.0761719 1.8417966 -5.9311514 -2.8911133 1.7338867 -6.1083975 2.2485352 1.5922854 -6.4658194 1.0297852 1.570801 -6.5493155 2.3344727 2.7509766 -6.816405 2.0717773 0.5664067 -5.931152 0.9916992 0.3745122 -5.9184566 -1.9741211 4.6870112 -7.808104 -1.3408203 5.6240225 -5.376952 -2.4160156 4.3315425 -7.551268 -0.46826172 5.8564444 -5.489257 -1.0395508 5.125488 -8.141111 -1.5507812 4.9272456 -7.9843736 2.4799805 4.335937 -4.838378 2.534668 4.3818355 -4.8740225 2.1074219 4.9790034 -5.1166983 2.0585938 5.02832 -5.136718 1.3408203 5.670409 -5.3129873 -2.0585938 5.02832 -5.136718 -2.1074219 4.9790034 -5.1166983 -1.3232422 5.555663 -5.3378897 -2.534668 4.339355 -4.9404287 -2.4799805 4.2929683 -4.904296 -2.6987305 3.8315425 -4.790038 -2.6376953 3.7641597 -4.762206 -2.7929688 3.396484 -4.544921 -2.7421875 3.3500972 -4.542968 -2.8510742 3.0063472 -4.322753 2.8139648 3.8959959 -7.2534165 3.086914 3.481933 -6.9824204 -1.8720703 0.11572313 -5.412109 -2.659668 0.73877 -5.6367183 -2.6547852 0.7788091 -5.543945 -2.8911133 1.7338867 -6.1083975 -2.0717773 0.5664067 -5.931152 -1.0297852 1.570801 -6.5493155 -1.0268555 2.8266602 -6.9873033 0 2.9077148 -7.028319 -1.1181641 4.3022456 -7.1147447 0 4.473144 -7.18994 -1.1816406 5.1162105 -6.7880845 0 5.3349605 -6.8916 -1.1640625 5.3593745 -6.5507803 0 5.5869136 -6.657714 -2.2485352 1.5922854 -6.4658194 -2.3344727 2.7509766 -6.816405 -2.3691406 3.2250974 -6.8471665 -2.399414 3.8505855 -6.527343 -2.2299805 4.3037105 -6.260253 -2.8720703 1.6943359 -6.1899405 -2.9082031 2.850586 -6.498534 -2.8862305 2.9160156 -6.3833 -2.7583008 3.5258784 -6.367675 -2.7324219 3.502441 -6.2958975 -2.394043 4.056152 -6.129882 -2.3549805 4.009765 -6.079589 3.147461 1.844238 -5.8950186 2.8725586 0.75341845 -5.368652 3.1108398 1.8300779 -5.9448233 2.8398438 0.7778325 -5.3613276 2.6547852 0.7788091 -5.543945 2.2319336 0.9897461 -3.1308591 2.3359375 0.36084032 -4.2514644 1.2963867 -0.41894484 -4.3681636 1.2783203 -0.3989253 -4.4394526 0 -0.60302687 -4.301269 0 -0.5605464 -4.3051753 -1.2783203 -0.3989253 -4.4394526 -1.2631836 -0.35888624 -4.4423823 -2.2861328 0.09179735 -4.8642573 -2.8725586 0.75341845 -5.368652 -3.1108398 1.8300779 -5.9448233 -2.8862305 2.9160156 -6.3833 1.3110352 -0.18652344 -3.8974605 0 -0.6249995 -4.228027 -1.2963867 -0.41894484 -4.3681636 -2.3164062 0.07910204 -4.797851 -2.9082031 0.7519536 -5.310058 -3.147461 1.844238 -5.8950186 0 -0.41064453 -3.7846675 -1.3110352 -0.18652344 -3.8974605 -2.3115234 0.30468798 -4.2026362 -1.2563477 0.39990234 -2.85791 1.8720703 0.11572313 -5.412109 2.2597656 0.12597704 -4.8627925 0.96240234 -0.16894484 -5.24707 2.659668 0.73877 -5.6367183 2.6547852 0.7788091 -5.543945 2.890625 1.7338867 -6.1083975 0 0.32080126 -5.888183 1.2563477 0.39990234 -2.85791 0 0.16113281 -2.7739255 2.3691406 3.2250974 -6.8471665 1.1181641 4.3022456 -7.1147447 1.0268555 2.8266602 -6.9873033 0 2.9077148 -7.028319 0 1.570801 -6.5493155 2.8720703 1.6943359 -6.1899405 2.9082031 2.850586 -6.498534 2.8862305 2.9160156 -6.3833 1.1640625 5.3593745 -6.5507803 0 5.5869136 -6.657714 -2.9482422 3.2397459 -5.7416983 -2.6044922 3.924316 -4.467284 -2.3549805 4.009765 -6.079589 -2.7324219 3.502441 -6.2958975 -0.42822266 5.7543936 -5.454589 -0.46826172 5.8564444 -5.489257 0 5.791991 -5.4780264 -1.3408203 5.6240225 -5.376952</float_array>
                    <technique_common>
                        <accessor count="299" offset="0" source="Joint_0_Object_0-geometry-POSITION-array" stride="3">
                            <param name="X" type="float" />
                            <param name="Y" type="float" />
                            <param name="Z" type="float" />
                        </accessor>
                    </technique_common>
                </source>
                <source id="Joint_0_Object_0-geometry-NORMAL">
                    <float_array id="Joint_0_Object_0-geometry-NORMAL-array" count="786">-0.9487339 -0.18958198 0.25290817 -0.9114757 -0.34483233 0.2242829 -0.6997613 -0.5617255 0.44136006 0 -0.6816862 -0.7316447 -0.060242172 -0.6350146 -0.7701476 0 -0.4014639 -0.91587484 0.83330864 0.5069433 0.2204659 0.89429104 0.35417005 0.27350903 0.8673703 0.46864414 0.16745578 -0.21994457 -0.7484278 -0.6256838 -0.14621145 -0.87894696 -0.4539543 0.03768998 -0.6576671 -0.75236523 -0.95222884 -0.27789867 -0.12662 -0.9442825 -0.3097253 -0.11135952 -0.93809766 -0.33093885 -0.10223584 -0.95880705 -0.24564523 -0.14264454 -0.95879567 -0.24567282 -0.14267337 0 0.5821328 -0.8130937 0.4025076 0.48756242 -0.7747713 0 0.20010537 -0.9797744 0.74644816 0.5204597 -0.41465265 0.66857094 0.4589081 -0.5851635 0 -0.44544262 -0.8953105 0 -0.9109769 -0.41245747 -0.0376902 -0.65773195 -0.75230855 0.9621068 0.05337578 -0.26739764 0.29159793 -0.45734018 -0.8401254 0.95935243 -0.19531283 -0.2037052 0.89630747 -0.36238053 0.25556457 0.61167675 -0.79078805 -0.022491973 0.85159385 -0.5088687 -0.12585913 0.92980534 0.3646953 -0.049592435 -0.9380335 -0.33112085 -0.102235496 0.97657394 0.10659912 0.18692233 0.9494632 -0.18329452 0.2547995 0.9961099 0.035065256 0.08084236 0.5124907 -0.83564687 0.19760472 0.4432169 -0.8705946 0.2135973 0.26147786 -0.9354973 0.23764323 0.44440663 0.4840802 0.75376993 0.110902086 0.61002237 0.78458494 0.39820674 0.54158294 0.7403508 0.93800414 -0.33109075 -0.10260184 0.9510061 -0.2853445 -0.119020715 0.9381101 -0.3309127 -0.10220667 0.9069075 0.3877634 -0.16479789 -0.015838709 0.3562945 0.93423945 0 0.3090591 0.95104283 0.09448534 0.44212168 0.8919647 -0.3982026 0.5416384 0.7403125 -0.110902086 0.61002237 0.78458494 -0.44444427 0.4840269 0.753782 0.9134126 -0.40509978 -0.03964328 -0.35007587 -0.8193868 0.45392963 -0.35007834 -0.8197893 0.4532004 -0.491226 -0.7447737 0.45167387 0.7690884 0.63419795 -0.079347186 0.7222186 0.6826361 -0.1113922 0.60905033 0.77549607 -0.16632374 0.8796768 0.47549844 0.008361915 0.9223028 0.37840015 0.0785549 0.92227465 0.37830955 0.07931807 -0.12665157 -0.47501954 -0.8708133 -0.13473774 -0.48371294 -0.8647934 -0.13482878 -0.48380262 -0.864729 -0.12661847 -0.47528455 -0.87067354 0.35010657 -0.8193567 0.4539604 0.491226 -0.7447737 0.45167387 0.37278336 -0.927884 0.007995787 0.9569192 -0.25290176 -0.14264064 0.95697975 -0.25308475 -0.14190814 0.95685816 -0.2531154 -0.14267115 -0.20608775 -0.8721725 0.44366992 0.21994457 -0.7484278 -0.6256838 0.07312264 -0.6287447 -0.7741661 -0.80830425 0.5861624 -0.05529888 -0.8796146 0.47561985 0.00799569 -0.7690884 0.63419795 -0.079347186 -0.87967944 0.47549984 0.007995725 -0.92227465 0.37830955 0.07931807 -0.9223629 0.37824717 0.07858534 -0.9378779 0.32577914 0.119386256 -0.93788725 0.32575187 0.11938744 -0.94804454 0.28436753 0.14264154 -0.9481002 0.28436592 0.14227453 -0.953161 0.2620559 0.15103236 -0.95315385 0.2620623 0.15106657 0.8878614 -0.45984575 -0.01562526 0.86226887 -0.50620973 0.015625425 0.8008037 -0.5947126 0.07092479 0.7534538 -0.6505477 0.09536805 0.70539653 -0.69733965 0.12701647 0.6033503 -0.7781905 0.17432146 -0.07116792 -0.45902076 -0.8855705 -0.09500398 -0.46739012 -0.8789316 -0.07116841 -0.45859662 -0.88579017 -0.09503422 -0.46738875 -0.878929 -0.12671056 -0.4434868 -0.8872789 -0.15881595 -0.44452584 -0.88157487 -0.15887758 -0.444558 -0.88154763 -0.1266822 -0.47489792 -0.8708752 -0.12658906 -0.47483093 -0.87092525 -0.047608417 -0.45310378 -0.89018565 -0.047670085 -0.4527741 -0.89035004 0 -0.45068923 -0.89268094 0 -0.4510913 -0.89247787 0.047670085 -0.4527741 -0.89035004 0.047608417 -0.45310378 -0.89018565 0.07116841 -0.45859662 -0.88579017 0.07116792 -0.45902076 -0.8855705 0.0950655 -0.46748406 -0.878875 0.09503422 -0.46738875 -0.878929 0.1267423 -0.44339955 -0.887318 0.15881594 -0.44458678 -0.8815442 0.1266822 -0.47489792 -0.8708752 0.12661879 -0.47488898 -0.8708893 0.12665065 -0.4748635 -0.87089854 -0.19809058 -0.9508407 0.23803818 -0.1351043 -0.96172154 0.23840849 -0.26154217 -0.93547845 0.23764619 0 -0.9695545 0.24487577 0 -0.9696469 0.24450976 0.1351043 -0.96172154 0.23840849 -0.5124335 -0.83577526 0.19720948 -0.4432503 -0.87056977 0.21362922 -0.6035816 -0.77792984 0.17468397 0.52247137 0.8312237 -0.18997565 0.43686628 0.8737019 -0.21399267 0.2694118 0.9352506 -0.22961639 0.20569155 0.9494158 -0.2372776 0.1347667 0.9598464 -0.24603458 0 0.9671947 -0.25403655 0 0.9673881 -0.25329882 -0.13483058 0.959836 -0.24603975 0.19806269 -0.95085335 0.23801082 0.9378779 0.32577914 0.119386256 0.9378146 0.32596147 0.11938596 0.94804454 0.28436753 0.14264154 0.9481043 0.28455025 0.14187841 0.953279 0.26206318 0.15027358 0.95315385 0.2620623 0.15106657 -0.11108745 0.47599736 0.8724025 -0.41969064 0.44352546 0.7919249 -0.41975227 0.44346505 0.791926 -0.586752 0.39655954 0.70601887 -0.8879241 -0.45972455 -0.01562529 -0.80081016 -0.59465635 0.071322106 -0.86216044 -0.50638294 0.015991332 -0.75349545 -0.6505573 0.09497272 -0.7052779 -0.69752616 0.12665087 -0.12665096 -0.47513932 -0.87074804 -0.12662032 -0.47492525 -0.87086934 -0.16650568 -0.4599352 -0.8722015 0.952128 -0.27789596 -0.12738171 0.94438434 -0.3095456 -0.110994525 -0.9134955 -0.40491283 -0.039642904 0.8907968 0.45429438 0.009887934 0.9622732 0.24719834 0.113680735 0.1665068 -0.46021295 -0.8720548 0.12665096 -0.47513932 -0.87074804 0.16650851 -0.4597904 -0.8722774 0.12662032 -0.47492525 -0.87086934 0.12652686 -0.4749181 -0.87088674 -0.99654245 0.031067554 0.07705853 -0.97940195 0.09363095 0.17889982 -0.96500707 0.24164084 0.10183829 -0.9522911 -0.27768537 -0.12662014 0.23792405 -0.9281966 -0.28608263 0.12661847 -0.47528455 -0.87067354 0.054444734 -0.5222298 -0.8510651 -0.82338524 -0.4938174 -0.27960914 -0.29144818 -0.45758873 -0.84004194 -0.9593132 -0.19550039 -0.20370984 0.30414033 -0.41968054 -0.85519993 0.0528583 -0.39417875 -0.9175125 0.29444024 -0.22467537 -0.92888427 0.25693154 -0.61109346 -0.7486995 0.060243517 -0.6348456 -0.77028686 -0.60939115 0.77522796 -0.16632514 -0.52247137 0.8312237 -0.18997565 -0.72227967 0.6826361 -0.11099547 -0.20569155 0.9494158 -0.2372776 -0.2694459 0.9352325 -0.22964996 -0.4368037 0.8735462 -0.21475486 0.33283243 0.41217986 0.8481335 0.33291826 0.41220325 0.8480884 0.3947257 0.44221225 0.8053819 0.39457592 0.4420018 0.8055708 0.094667956 0.4417226 0.8921431 -0.39457592 0.4420018 0.8055708 -0.3948161 0.44230253 0.805288 -0.09448534 0.44212168 0.8919647 -0.33295447 0.41233242 0.8480114 -0.3327725 0.4118455 0.8483194 0.11105516 0.47580665 0.8725106 0.11105462 0.47592643 0.8724454 0.41975227 0.44346505 0.791926 0.58704454 0.39664257 0.705729 0.8082165 0.5863177 -0.05493292 0.8795752 0.4756926 0.007995887 -0.31012505 -0.8310691 -0.46167797 -0.77251357 -0.5380707 -0.33719835 -0.2570578 -0.6109507 -0.7487726 -0.052826606 -0.39401737 -0.9175836 -0.0679031 -0.21017906 -0.975302 0 -0.1773705 -0.98414415 -0.22885747 0.13107654 -0.96459484 -0.4023841 0.4873776 -0.7749517 -0.36490607 0.6548289 -0.66184795 0 0.6800413 -0.7331737 -0.30439043 -0.42002448 -0.854942 -0.29434597 -0.22458175 -0.9289368 -0.44242653 0.12921531 -0.887447 -0.66880625 0.45853585 -0.5851863 -0.74641097 0.5205161 -0.41464892 -0.7330915 -0.31202388 -0.6043327 -0.88997096 0.022675026 -0.45545313 -0.9620936 0.053590372 -0.26740244 -0.90693325 0.38754773 -0.16516323 -0.89440274 0.35419646 0.27310914 -0.8673703 0.46864414 0.16745578 -0.8347096 0.5062701 0.21668084 0.9257419 -0.18939649 -0.32730862 0.17892736 -0.54059666 -0.82203424 0.06582816 -0.41340196 -0.908166 -0.05444538 -0.5221139 -0.85113615 0.82349896 -0.49362928 -0.2796063 0.7123061 -0.58260155 0.39140204 0.67295885 -0.64906293 0.35474455 0.32477024 -0.94464725 0.046539553 0.047211517 -0.6281541 -0.7766554 0 -0.7843935 -0.6202636 -0.04724266 -0.62810135 -0.7766961 -0.07318336 -0.6287419 -0.77416265 -0.17880635 -0.54072195 -0.82197815 -0.065888755 -0.41367385 -0.9080378 0.37119356 -0.817584 0.44019517 0 -0.97879654 0.20483524 -0.2792117 -0.9602269 -0.0022889276 -0.59296733 -0.7968894 -0.1155722 -0.85158014 -0.5089826 -0.12549089 -0.9257419 -0.18939649 -0.32730862 0 -0.87966233 0.4755987 -0.3212401 -0.82302886 0.46843174 -0.6474993 -0.69846416 0.30478266 -0.31683955 -0.82014495 0.47641888 0.31012505 -0.8310691 -0.46167797 0.14624523 -0.8789361 -0.45396444 0.77266383 -0.53785545 -0.33719733 0.3169352 -0.8200335 0.47654712 0 -0.87032574 0.49247652 0.4423274 0.12902999 -0.88752335 0.22882855 0.13107747 -0.9646016 0.06790382 -0.21027283 -0.9752818 0.7330836 -0.3121731 -0.60426515 0.8901574 0.022675112 -0.45508862 0.3648194 0.6548682 -0.66185683 -0.9302964 0.36256012 -0.055665772 -0.8926922 0.45066434 -0.0015258902 0.015838709 0.3562945 0.93423945 0 0.3091785 0.9510041 -0.094667956 0.4417226 0.8921431</float_array>
                    <technique_common>
                        <accessor count="262" offset="0" source="Joint_0_Object_0-geometry-NORMAL-array" stride="3">
                            <param name="X" type="float" />
                            <param name="Y" type="float" />
                            <param name="Z" type="float" />
                        </accessor>
                    </technique_common>
                </source>
                <source id="Joint_0_Object_0-geometry-TEXCOORD">
                    <float_array id="Joint_0_Object_0-geometry-TEXCOORD-array" count="362">0.63168335 -0.012786865 0.62997437 -0.1734314 0.5303345 -0.012786865 0.72265625 0.9941101 0.7126465 0.8414917 0.53466797 0.9941101 0.17175293 0.592926 0.27929688 0.5842285 0.1723938 0.60601807 0.8743286 0.6151428 0.83358765 0.840271 0.9612427 0.7838745 0.8580322 0.26696777 0.7835083 0.046691895 0.6991577 0.049468994 0.9868164 0.26696777 0.9868164 0.015350342 0.94815063 0.023040771 0.1376648 0.9891968 0.15646362 0.8371277 0.22683716 0.9891968 0.13439941 0.6538391 0.24093628 0.6526184 0.99749756 0.9891968 0.85388184 0.9891968 0.9612427 0.7789612 0.82977295 -0.41812134 0.7397461 -0.4638977 0.73913574 -0.4611206 0.6359253 -0.1734314 0.5366211 -0.45541382 0.63568115 -0.4515381 0.8822632 -0.34539795 0.83966064 -0.1734314 0.7451477 0.26696777 0.7453613 -0.012786865 0.63760376 -0.012786865 0.742218 -0.1734314 0.2286377 0.04837036 0.2300415 0.26696777 0.15814209 0.26696777 0.8598633 0.4961853 0.97302246 0.5018616 0.9306946 0.5124817 0.28085327 0.59646606 0.9868164 0.5018616 0.08560181 0.57821655 0.086883545 0.5645447 0.013793945 0.5661011 0.23028564 0.57821655 0.6392212 0.26696777 0.38412476 0.5239258 0.36203003 0.2725525 0.29516602 0.2725525 0.5299988 0.5005493 0.6465454 0.49188232 0.6392212 0.2725525 0.9742737 0.2725525 0.8580322 0.2725525 0.53842163 -0.47387695 0.53790283 -0.46670532 0.43795776 -0.45947266 0.85388184 0.9941101 0.99749756 0.9941101 0.44656372 0.2725525 0.5310974 0.2725525 0.7451477 0.2725525 0.74975586 0.49404907 0.58914185 0.04055786 0.5338745 0.26696777 0.44854736 0.26696777 0.40075684 0.03967285 0.36328125 0.26696777 0.2966919 0.26696777 0.22827148 0.2725525 0.15646362 0.2725525 0.08621216 0.26696777 0.0847168 0.2725525 0.0138549805 0.26696777 0.0138549805 0.2725525 0.112091064 0.04244995 0.013793945 0.04232788 0.23208618 0.5645447 0.6456909 0.50320435 0.74331665 0.5062866 0.8598633 0.5093689 0.87960815 0.03152466 0.9232788 -0.1734314 0.848053 -0.012786865 0.77056885 -0.012786865 0.7362671 -0.1734314 0.7394104 -0.012786865 0.76464844 -0.012786865 0.631897 -0.46594238 0.63412476 -0.4751587 0.5324707 -0.47387695 0.7338257 -0.4638977 0.7331848 -0.4611206 0.526062 0.657135 0.5323181 0.83792114 0.37002563 0.66119385 0.6831665 0.67196655 0.7126465 0.8366089 0.52905273 0.5109558 0.38619995 0.5357361 0.78204346 0.69747925 0.71875 0.5656128 0.723053 0.5527954 0.52285767 0.5308838 0.6831665 0.6768799 0.5323181 0.8428345 0.36547852 0.8522644 0.35766602 0.9941101 0.24346924 0.84817505 0.22683716 0.9941101 0.15646362 0.8420105 0.1376648 0.9941101 0.047821045 0.8055725 0.0262146 0.9941101 0.526062 0.6620178 0.37002563 0.6661072 0.31326294 0.6676636 0.24093628 0.6575012 0.13439941 0.65875244 0.5231018 0.5432739 0.36325073 0.5727539 0.35717773 0.55703735 0.28085327 0.6013489 0.27929688 0.58914185 0.1723938 0.6109314 0.17175293 0.59780884 0.7387085 -0.44543457 0.6370239 -0.4602356 0.73947144 -0.4565735 0.6375122 -0.46594238 0.6397705 -0.4751587 0.5362854 -0.012786865 0.5369873 -0.1734314 0.43707275 -0.440979 0.43774414 -0.45239258 0.21685791 -0.37783813 0.4317932 -0.45239258 0.43200684 -0.45947266 0.5319824 -0.46670532 0.6313782 -0.4602356 0.7335205 -0.4565735 0.83291626 -0.41989136 0.43637085 -0.1734314 0.3425293 -0.37530518 0.43112183 -0.440979 0.5307007 -0.45541382 0.6300659 -0.4515381 0.7327881 -0.44543457 0.32470703 -0.1734314 0.43041992 -0.1734314 0.5310669 -0.1734314 0.42797852 -0.020751953 0.78204346 0.6925659 0.8743286 0.61026 0.83358765 0.83535767 0.71875 0.56073 0.723053 0.5479126 0.52285767 0.52597046 0.72265625 0.9891968 0.43389893 -0.020751953 0.32470703 -0.02835083 0.31326294 0.66278076 0.24346924 0.8432617 0.36547852 0.8473511 0.35766602 0.9891968 0.53466797 0.9891968 0.5231018 0.5383606 0.36325073 0.5678711 0.35717773 0.552124 0.047821045 0.8006897 0.0262146 0.9891968 0.83374023 -0.1734314 0.84210205 -0.012786865 0.9173279 -0.1734314 0.8763428 -0.34539795 0.013793945 0.5781555</float_array>
                    <technique_common>
                        <accessor count="181" offset="0" source="Joint_0_Object_0-geometry-TEXCOORD-array" stride="2">
                            <param name="S" type="float" />
                            <param name="T" type="float" />
                        </accessor>
                    </technique_common>
                </source>
                <vertices id="Joint_0_Object_0-vertices">
                    <input semantic="POSITION" source="#Joint_0_Object_0-geometry-POSITION" />
                </vertices>
                <triangles count="348" material="Joint_0_Object_0_Material_0">
                    <input semantic="VERTEX" source="#Joint_0_Object_0-vertices" offset="0" set="0" />
                    <input semantic="NORMAL" source="#Joint_0_Object_0-geometry-NORMAL" offset="1" set="0" />
                    <input semantic="TEXCOORD" source="#Joint_0_Object_0-geometry-TEXCOORD" offset="2" set="0" />
                    <p>0 0 0 2 2 2 1 1 1 3 3 3 5 5 5 4 4 4 6 6 6 8 8 8 7 7 7 9 9 9 11 11 11 10 10 10 12 12 12 14 14 14 13 13 13 15 15 15 17 16 17 16 16 16 18 17 18 20 19 20 19 18 19 21 20 21 22 21 22 8 8 8 23 22 23 25 24 25 24 23 24 26 25 26 28 27 28 27 26 27 29 28 29 31 30 31 30 29 30 26 25 26 33 31 33 32 7 32 34 32 34 14 14 14 12 12 12 35 33 35 37 35 37 36 34 36 38 36 38 40 38 40 39 37 39 41 39 41 43 41 43 42 40 42 44 42 14 46 44 34 45 43 12 8 8 8 47 45 44 7 7 7 42 40 42 43 41 43 48 40 45 49 46 46 51 47 48 50 46 47 49 46 46 50 46 47 52 48 49 53 49 43 55 51 41 54 50 42 53 49 43 54 50 42 56 50 45 44 42 14 57 52 50 46 44 34 58 53 42 60 55 45 59 54 15 61 56 51 63 58 53 62 57 52 64 59 54 66 61 56 65 60 55 67 62 12 69 64 57 68 63 15 67 62 12 70 65 58 69 64 57 71 66 42 73 68 15 72 67 45 74 69 17 76 71 15 75 70 16 58 53 42 59 54 15 77 72 57 78 73 59 80 24 61 79 74 60 3 3 3 4 4 4 10 10 10 81 23 62 3 3 3 10 10 10 81 23 62 10 10 10 11 11 11 82 22 63 81 23 62 11 11 11 83 75 64 85 77 51 84 76 54 86 78 65 83 75 64 84 76 54 86 78 65 84 76 54 87 79 56 87 79 56 84 76 54 88 80 55 89 81 66 87 79 56 88 80 55 89 81 66 88 80 55 90 82 67 91 83 58 89 81 66 90 82 67 91 83 58 90 82 67 92 84 41 93 85 57 91 83 58 92 84 41 93 85 57 92 84 41 94 86 42 57 52 50 44 42 14 95 87 68 96 88 69 57 52 50 95 87 68 96 88 69 95 87 68 97 89 70 97 89 70 95 87 68 98 90 71 99 91 72 97 89 70 98 90 71 99 91 72 98 90 71 38 36 38 100 92 73 99 91 72 38 36 38 100 92 73 38 36 38 39 37 39 101 93 40 103 95 75 102 94 74 104 96 39 101 93 40 102 94 74 104 96 39 102 94 74 105 97 53 106 97 73 104 96 39 105 97 53 106 97 73 105 97 53 107 98 52 108 99 72 106 97 73 107 98 52 108 99 72 107 98 52 109 100 64 110 101 70 108 99 72 109 100 64 110 101 70 109 100 64 111 101 69 103 95 75 101 93 40 112 102 76 113 103 77 103 95 75 112 102 76 113 103 77 112 102 76 114 104 78 115 105 79 113 103 77 114 104 78 115 105 79 114 104 78 116 106 77 116 106 77 114 104 78 117 107 76 118 108 75 116 106 77 117 107 76 118 108 75 117 107 76 119 109 40 120 110 74 118 108 75 119 109 40 120 110 74 119 109 40 121 111 39 122 112 53 120 110 74 121 111 39 122 112 53 121 111 39 123 112 73 124 113 52 122 112 53 123 112 73 124 113 52 123 112 73 125 113 72 126 114 64 124 113 52 125 113 72 126 114 64 125 113 72 127 115 70 128 116 69 126 114 64 127 115 70 129 117 80 131 119 40 130 118 76 132 120 81 129 117 80 130 118 76 132 120 81 130 118 76 133 121 78 134 122 76 132 120 81 133 121 78 131 119 40 129 117 80 135 123 38 136 124 39 131 119 40 135 123 38 136 124 39 135 123 38 137 125 73 63 58 53 61 56 51 138 126 82 139 127 74 63 58 53 138 126 82 139 127 74 138 126 82 140 128 75 140 128 75 138 126 82 141 129 47 142 130 77 140 128 75 141 129 47 142 130 77 141 129 47 143 131 48 144 132 79 142 130 77 143 131 48 144 132 79 143 131 48 145 133 77 40 38 40 38 36 38 146 134 80 134 122 76 40 38 40 146 134 80 134 122 76 146 134 80 132 120 81 65 60 55 66 61 56 147 135 66 148 136 67 65 60 55 147 135 66 148 136 67 147 135 66 149 137 58 150 138 41 148 136 67 149 137 58 150 138 41 149 137 58 151 139 57 152 140 42 150 138 41 151 139 57 153 141 83 155 141 55 154 142 67 156 143 84 153 141 83 154 142 67 156 143 84 154 142 67 55 51 41 157 144 85 156 143 84 55 51 41 157 144 85 55 51 41 53 49 43 158 145 68 160 147 69 159 146 70 161 148 71 158 145 68 159 146 70 161 148 71 159 146 70 162 149 72 135 123 38 161 148 71 162 149 72 135 123 38 162 149 72 137 125 73 70 65 58 67 62 12 163 150 34 164 151 66 70 65 58 163 150 34 164 151 66 163 150 34 165 152 56 165 152 56 163 150 34 166 152 50 167 101 65 165 152 56 166 152 50 167 101 65 166 152 50 111 101 69 109 100 64 167 101 65 111 101 69 76 71 15 74 69 17 168 153 86 45 43 12 76 71 15 168 153 86 45 43 12 168 153 86 169 154 13 44 42 14 45 43 12 169 154 13 14 14 14 34 32 34 170 155 50 158 145 68 14 14 14 170 155 50 158 145 68 170 155 50 160 147 69 171 6 87 32 7 32 33 31 33 172 156 88 171 6 87 33 31 33 172 156 88 33 31 33 173 157 89 174 158 56 176 160 50 175 159 34 177 161 66 174 158 56 175 159 34 177 161 66 175 159 34 178 162 58 176 160 50 174 158 56 179 115 65 128 116 69 176 160 50 179 115 65 128 116 69 179 115 65 126 114 64 0 0 0 1 1 1 180 163 90 181 164 91 0 0 0 180 163 90 181 164 91 180 163 90 182 165 92 17 16 17 15 15 15 12 12 12 183 166 86 17 16 17 12 12 12 183 166 86 12 12 12 13 13 13 73 68 15 71 66 42 184 167 57 185 168 12 73 68 15 184 167 57 185 168 12 184 167 57 178 162 58 175 159 34 185 168 12 178 162 58 186 169 93 188 9 95 187 170 94 189 171 96 186 169 93 187 170 94 189 171 96 187 170 94 190 172 97 191 173 98 193 175 100 192 174 99 194 176 101 191 173 98 192 174 99 194 176 101 192 174 99 195 177 102 196 178 53 197 179 82 85 77 51 198 180 52 196 178 53 85 77 51 198 180 52 85 77 51 83 75 64 145 133 77 143 131 48 199 181 47 200 182 75 145 133 77 199 181 47 200 182 75 199 181 47 197 179 82 201 183 74 200 182 75 197 179 82 201 183 74 197 179 82 196 178 53 155 141 55 153 141 83 202 184 103 203 185 54 155 141 55 202 184 103 203 185 54 202 184 103 204 186 104 205 187 51 203 185 54 204 186 104 205 187 51 204 186 104 52 48 49 206 188 82 205 187 51 52 48 49 206 188 82 52 48 49 50 46 47 207 189 51 209 191 49 208 190 104 210 192 54 207 189 51 208 190 104 210 192 54 208 190 104 211 193 103 212 194 55 210 192 54 211 193 103 212 194 55 211 193 103 213 195 83 214 196 67 212 194 55 213 195 83 214 196 67 213 195 83 215 196 84 41 39 41 214 196 67 215 196 84 41 39 41 215 196 84 216 197 85 43 41 43 41 39 41 216 197 85 61 56 51 62 57 52 217 198 64 64 59 54 61 56 51 217 198 64 64 59 54 217 198 64 218 199 65 66 61 56 64 59 54 218 199 65 10 10 10 4 4 4 219 200 105 9 9 9 10 10 10 219 200 105 9 9 9 219 200 105 220 201 106 221 170 107 9 9 9 220 201 106 221 170 107 220 201 106 222 172 108 223 202 109 219 200 105 4 4 4 224 203 110 223 202 109 4 4 4 224 203 110 4 4 4 5 5 5 225 204 111 224 203 110 5 5 5 225 204 111 5 5 5 226 205 112 227 206 113 225 204 111 226 205 112 227 206 113 226 205 112 228 19 114 229 207 115 227 206 113 228 19 114 229 207 115 228 19 114 230 17 116 231 208 117 229 207 115 230 17 116 231 208 117 230 17 116 232 209 118 220 201 106 219 200 105 223 202 109 233 210 119 220 201 106 223 202 109 233 210 119 223 202 109 224 203 110 234 211 120 233 210 119 224 203 110 234 211 120 224 203 110 225 204 111 235 212 121 234 211 120 225 204 111 235 212 121 225 204 111 227 206 113 236 213 122 235 212 121 227 206 113 236 213 122 227 206 113 229 207 115 237 214 123 236 213 122 229 207 115 237 214 123 229 207 115 231 208 117 220 201 106 233 210 119 238 215 124 222 172 108 220 201 106 238 215 124 222 172 108 238 215 124 239 216 125 240 217 126 222 172 108 239 216 125 240 217 126 239 216 125 241 218 127 242 219 128 240 217 126 241 218 127 242 219 128 241 218 127 243 220 129 244 221 130 242 219 128 243 220 129 238 215 124 233 210 119 234 211 120 239 216 125 238 215 124 234 211 120 239 216 125 234 211 120 235 212 121 241 218 127 239 216 125 235 212 121 241 218 127 235 212 121 236 213 122 243 220 129 241 218 127 236 213 122 243 220 129 236 213 122 237 214 123 29 28 29 36 34 36 37 35 37 31 30 31 29 28 29 37 35 37 31 30 31 37 35 37 245 222 131 246 223 132 31 30 31 245 222 131 246 223 132 245 222 131 247 224 133 248 225 134 246 223 132 247 224 133 248 225 134 247 224 133 27 26 27 249 226 135 248 225 134 27 26 27 249 226 135 27 26 27 28 27 28 250 227 136 36 34 36 29 28 29 251 228 137 250 227 136 29 28 29 251 228 137 29 28 29 30 29 30 252 229 138 251 228 137 30 29 30 252 229 138 30 29 30 253 230 139 254 231 140 252 229 138 253 230 139 254 231 140 253 230 139 255 22 140 256 232 141 254 231 140 255 22 140 256 232 141 255 22 140 257 11 142 258 233 143 256 232 141 257 11 142 258 233 143 257 11 142 188 9 95 259 234 144 258 233 143 188 9 95 259 234 144 188 9 95 186 169 93 260 235 145 259 234 144 186 169 93 260 235 145 186 169 93 189 171 96 261 217 146 260 235 145 189 171 96 261 217 146 189 171 96 190 172 97 262 236 147 251 228 137 252 229 138 263 237 148 262 236 147 252 229 138 263 237 148 252 229 138 254 231 140 264 238 149 263 237 148 254 231 140 264 238 149 254 231 140 256 232 141 265 239 150 264 238 149 256 232 141 265 239 150 256 232 141 258 233 143 266 240 151 265 239 150 258 233 143 266 240 151 258 233 143 259 234 144 267 241 152 266 240 151 259 234 144 267 241 152 259 234 144 260 235 145 261 217 146 267 241 152 260 235 145 268 242 153 262 236 147 263 237 148 269 243 154 268 242 153 263 237 148 269 243 154 263 237 148 264 238 149 270 244 155 269 243 154 264 238 149 270 244 155 264 238 149 265 239 150 1 1 1 270 244 155 265 239 150 1 1 1 265 239 150 266 240 151 180 163 90 1 1 1 266 240 151 180 163 90 266 240 151 267 241 152 261 217 146 180 163 90 267 241 152 271 245 156 268 242 153 269 243 154 2 2 2 271 245 156 269 243 154 2 2 2 269 243 154 270 244 155 1 1 1 2 2 2 270 244 155 272 246 157 274 247 159 273 73 158 275 248 160 272 246 157 273 73 158 275 248 160 273 73 158 276 226 161 277 27 162 275 248 160 276 226 161 25 24 25 273 73 158 274 247 159 24 23 24 25 24 25 274 247 159 24 23 24 274 247 159 278 3 163 250 227 136 251 228 137 262 236 147 279 249 164 250 227 136 262 236 147 279 249 164 262 236 147 268 242 153 280 250 165 279 249 164 268 242 153 280 250 165 268 242 153 271 245 156 47 45 44 8 8 8 22 21 22 281 251 166 47 45 44 22 21 22 281 251 166 22 21 22 282 252 167 283 253 168 281 251 166 282 252 167 283 253 168 282 252 167 284 205 169 285 5 170 283 253 168 284 205 169 195 177 102 274 247 159 272 246 157 194 176 101 195 177 102 272 246 157 194 176 101 272 246 157 275 248 160 191 173 98 194 176 101 275 248 160 191 173 98 275 248 160 286 254 171 193 175 100 191 173 98 286 254 171 193 175 100 286 254 171 287 255 172 286 254 171 275 248 160 277 27 162 287 255 172 286 254 171 277 27 162 287 255 172 277 27 162 288 25 173 33 31 33 26 25 26 37 35 37 173 157 89 33 31 33 37 35 37 173 157 89 37 35 37 35 33 35 245 222 131 37 35 37 26 25 26 247 224 133 245 222 131 26 25 26 247 224 133 26 25 26 27 26 27 22 21 22 21 20 21 19 18 19 282 252 167 22 21 22 19 18 19 282 252 167 19 18 19 20 19 20 284 205 169 282 252 167 20 19 20 19 18 19 21 20 21 289 256 174 18 17 18 19 18 19 289 256 174 18 17 18 289 256 174 290 209 175 30 29 30 31 30 31 79 74 60 253 230 139 30 29 30 79 74 60 253 230 139 79 74 60 80 24 61 255 22 140 253 230 139 80 24 61 79 74 60 31 30 31 246 223 132 78 73 59 79 74 60 246 223 132 78 73 59 246 223 132 248 225 134 249 226 135 78 73 59 248 225 134 182 165 92 180 163 90 291 257 176 292 258 177 182 165 92 291 257 176 292 258 177 291 257 176 293 221 178 294 219 179 293 221 178 291 257 176 261 217 146 294 219 179 291 257 176 261 217 146 291 257 176 180 163 90 295 259 46 296 259 47 51 47 48 297 260 180 295 259 46 51 47 48 297 260 180 51 47 48 49 46 46 278 3 163 274 247 159 195 177 102 285 5 170 278 3 163 195 177 102 285 5 170 195 177 102 192 174 99 283 253 168 285 5 170 192 174 99 283 253 168 192 174 99 193 175 100 281 251 166 283 253 168 193 175 100 281 251 166 193 175 100 287 255 172 47 45 44 281 251 166 287 255 172 47 45 44 287 255 172 288 25 173 7 7 7 47 45 44 288 25 173 296 259 47 295 259 46 209 191 49 298 261 82 296 259 47 209 191 49 298 261 82 209 191 49 207 189 51</p>
                </triangles>
            </mesh>
        </geometry>
        <geometry id="Joint_0_Object_1-geometry" name="Joint_0_Object_1">
            <mesh>
                <source id="Joint_0_Object_1-geometry-POSITION">
                    <float_array id="Joint_0_Object_1-geometry-POSITION-array" count="222">2.0009766 0.6372075 -5.978027 0.6542969 -0.5913081 -4.2182612 -2.8964844 0.710938 -5.561523 -2.4101562 3.7587886 -4.420409 -2.7231445 2.9316406 -6.665038 -2.8964844 0.710938 -5.561523 -2.7231445 2.9316406 -6.665038 -2.3442383 3.8833003 -5.951171 -0.7915039 5.2377925 -6.357421 -2.8964844 0.710938 -5.561523 0.6542969 -0.5913081 -4.2182612 -1.9501953 -0.16113234 -4.513183 -2.3442383 3.8833003 -5.951171 2.0009766 0.6372075 -5.978027 2.7416992 3.4160151 -4.5566397 3.6557617 1.6181641 -5.7592764 3.7480469 1.65625 -5.7563467 -3.7646484 2.3417969 -6.145995 0.016601562 5.2797847 -8.137693 0.015625 5.2080073 -8.116209 3.6557617 1.6181641 -5.7592764 0.015625 5.2080073 -8.116209 0.016601562 5.2797847 -8.137693 3.7480469 1.65625 -5.7563467 -3.6801758 2.2895508 -6.1347647 2.9560547 0.8022466 -5.320312 -3.6801758 2.2895508 -6.1347647 -2.7358398 3.410644 -4.5546865 -2.8251953 3.4467769 -4.5268545 -3.7646484 2.3417969 -6.145995 -3.7646484 2.3417969 -6.145995 -2.8251953 3.4467769 -4.5268545 -2.3256836 4.9360347 -4.8945303 2.8339844 3.4501948 -4.5375967 2.3989258 2.8085938 -6.5581045 1.1884766 4.9355464 -6.5195303 1.9086914 3.6582026 -6.032714 0.016601562 5.2797847 -8.137693 -0.05810547 5.9223623 -5.439452 -0.056640625 5.9223623 -5.4399405 -2.5986328 1.1308594 -3.1625974 -1.9501953 -0.16113234 -4.513183 0.6542969 -0.5913081 -4.2182612 2.7680664 1.3129883 -3.2109373 2.9560547 0.8022466 -5.320312 2.4106445 3.7753901 -4.433593 2.3989258 2.8085938 -6.5581045 1.9086914 3.6582026 -6.032714 -2.7231445 2.9316406 -6.665038 -0.7915039 5.2377925 -6.357421 -2.7358398 3.410644 -4.5546865 -2.3256836 4.9360347 -4.8945303 -2.8251953 3.4467769 -4.5268545 -2.2475586 4.875976 -4.878417 -0.05810547 5.9223623 -5.439452 3.7480469 1.65625 -5.7563467 2.364746 4.8906245 -4.904296 2.8339844 3.4501948 -4.5375967 0.016601562 5.2797847 -8.137693 -0.05810547 5.9223623 -5.439452 0.015625 5.2080073 -8.116209 -0.056640625 5.9223623 -5.4399405 -2.2475586 4.875976 -4.878417 -3.6801758 2.2895508 -6.1347647 -2.7358398 3.410644 -4.5546865 2.8339844 3.4501948 -4.5375967 2.2885742 4.8261714 -4.8999014 2.7416992 3.4160151 -4.5566397 2.364746 4.8906245 -4.904296 -0.056640625 5.9223623 -5.4399405 0.015625 5.2080073 -8.116209 2.2885742 4.8261714 -4.8999014 3.6557617 1.6181641 -5.7592764 2.7416992 3.4160151 -4.5566397</float_array>
                    <technique_common>
                        <accessor count="74" offset="0" source="Joint_0_Object_1-geometry-POSITION-array" stride="3">
                            <param name="X" type="float" />
                            <param name="Y" type="float" />
                            <param name="Z" type="float" />
                        </accessor>
                    </technique_common>
                </source>
                <source id="Joint_0_Object_1-geometry-NORMAL">
                    <float_array id="Joint_0_Object_1-geometry-NORMAL-array" count="165">0.26306775 -0.6154624 -0.742968 0.10806476 -0.9745969 0.19617057 -0.7535556 -0.49445587 -0.4332059 -0.9811291 0.17859238 0.07409814 -0.7011278 0.059754897 -0.71052736 -0.81821 0.51602364 -0.2534799 -0.14224641 0.2468636 -0.95855325 -0.36744162 -0.9298957 0.016754545 0.03698762 -0.548497 0.835334 0.1738622 -0.4850258 0.85704255 0.1699872 -0.48698127 0.8567109 -0.1450833 -0.42328665 -0.8943038 0.0058899256 -0.28482205 -0.9585623 0.027741117 -0.28439975 -0.95830435 0.19406666 -0.39124608 -0.8995914 0.19348286 -0.3917874 -0.89948153 -0.14392245 -0.42453444 -0.8938998 0.8615959 -0.45054328 -0.23380157 -0.44599497 -0.5971217 0.6667339 -0.11841018 -0.7750983 0.6206462 -0.12842155 -0.7713837 0.62327766 -0.45399737 -0.5911182 0.6666826 -0.8112739 0.548143 -0.20340589 -0.8915085 0.3651241 0.26813614 -0.7150786 0.6557811 -0.24210304 0.033172924 -0.55008453 0.8344499 0.6489471 0.116733596 -0.7518251 0.12875521 0.14367852 -0.9812128 0.8249155 0.5518357 -0.12244024 0.030427037 0.90347224 -0.42756534 0.58027613 0.5146004 0.6312417 -0.38486603 0.61247116 0.69047606 -0.76904297 -0.426439 0.47615403 0.81396025 -0.41639507 0.40507263 0.9532522 0.2887283 -0.08914229 0.32578415 0.121402204 0.9376173 0.032257505 0.28042957 0.95933247 0.33835292 0.11715847 0.9336976 0.025482535 0.28638086 0.95777696 0.07470898 0.3449796 0.9356322 0.8412121 0.44193843 -0.31153283 0.7427236 0.5848829 -0.32599628 0.9205193 0.3459843 0.18149148 -0.030609502 -0.8975021 0.4399466 0.7223928 -0.64798963 0.24136718 0.81241965 -0.54749274 0.20056422 0.8911339 -0.3586813 -0.27789947 -0.24725613 0.15393226 0.95664483 -0.124757946 0.20871311 0.9699868 -0.2522598 0.1517037 0.955694 -0.12250182 0.20954087 0.9700959 -0.12417789 0.21145937 0.96946627 -0.7497081 -0.57816565 0.32196608 -0.84314436 -0.44159177 0.30676433 -0.9206051 -0.34186226 -0.18872312</float_array>
                    <technique_common>
                        <accessor count="55" offset="0" source="Joint_0_Object_1-geometry-NORMAL-array" stride="3">
                            <param name="X" type="float" />
                            <param name="Y" type="float" />
                            <param name="Z" type="float" />
                        </accessor>
                    </technique_common>
                </source>
                <source id="Joint_0_Object_1-geometry-TEXCOORD">
                    <float_array id="Joint_0_Object_1-geometry-TEXCOORD-array" count="94">0.667511 0.68896484 0.9739075 0.89297485 0.72268677 0.9892273 0.8331909 -0.012786865 0.85736084 -0.36645508 0.68081665 -0.46224976 0.33465576 0.6751404 0.17160034 0.6065979 0.0413208 0.8703613 0.6680298 0.62609863 0.9847412 0.9941101 0.908844 0.6821289 0.91729736 -0.17337036 0.5346985 0.9941101 0.8012085 0.50564575 0.96920776 0.2685547 0.8338928 0.26885986 0.014862061 0.27182007 0.014892578 0.27182007 0.78167725 0.5860596 0.86654663 0.5031128 0.42349243 0.5288086 0.3109131 0.59625244 0.049194336 0.80114746 0.17160034 0.6017151 0.017425537 0.548584 0.5798645 -0.015014648 0.49194336 -0.4493103 0.3463745 -0.4043274 0.60110474 -0.013702393 0.6380615 -0.45620728 0.8406677 -0.012786865 0.85980225 -0.36569214 0.9232788 -0.17337036 0.2638855 0.973999 0.026184082 0.9892273 0.43478394 0.5275879 0.1979065 0.05319214 0.14178467 0.26766968 0.0947876 0.053771973 0.3449402 0.08758545 0.6572571 0.26834106 0.6821289 0.10543823 0.29364014 0.26831055 0.35351562 0.08843994 0.7602539 0.2685547 0.63238525 0.10369873</float_array>
                    <technique_common>
                        <accessor count="47" offset="0" source="Joint_0_Object_1-geometry-TEXCOORD-array" stride="2">
                            <param name="S" type="float" />
                            <param name="T" type="float" />
                        </accessor>
                    </technique_common>
                </source>
                <vertices id="Joint_0_Object_1-vertices">
                    <input semantic="POSITION" source="#Joint_0_Object_1-geometry-POSITION" />
                </vertices>
                <triangles count="48" material="Joint_0_Object_1_Material_1">
                    <input semantic="VERTEX" source="#Joint_0_Object_1-vertices" offset="0" set="0" />
                    <input semantic="NORMAL" source="#Joint_0_Object_1-geometry-NORMAL" offset="1" set="0" />
                    <input semantic="TEXCOORD" source="#Joint_0_Object_1-geometry-TEXCOORD" offset="2" set="0" />
                    <p>0 0 0 2 2 2 1 1 1 3 3 3 5 2 5 4 4 4 6 4 6 8 6 8 7 5 7 9 2 9 11 7 11 10 1 10 3 3 3 4 4 4 12 5 12 13 0 13 6 4 6 9 2 9 14 8 14 16 10 15 15 9 15 17 11 16 19 13 17 18 12 17 20 14 15 22 12 18 21 13 18 22 12 18 20 14 15 23 15 15 19 13 17 17 11 16 24 16 16 0 0 0 1 1 1 25 17 19 26 18 16 28 20 20 27 19 20 28 20 20 26 18 16 29 21 16 30 22 16 32 24 21 31 23 20 16 10 15 14 8 14 33 25 14 34 26 22 36 28 24 35 27 23 32 24 21 30 22 16 37 29 17 38 30 25 32 24 21 37 29 17 38 30 25 37 29 17 39 31 25 5 2 5 3 3 3 40 32 26 41 7 27 5 2 5 40 32 26 41 7 27 40 32 26 42 1 28 42 1 28 40 32 26 43 33 29 44 17 30 42 1 28 43 33 29 44 17 30 43 33 29 45 34 31 46 26 32 44 17 30 45 34 31 46 26 32 45 34 31 47 28 33 0 0 0 25 17 19 34 26 22 48 4 34 0 0 0 34 26 22 48 4 34 34 26 22 35 27 23 49 6 35 48 4 34 35 27 23 50 35 20 52 37 20 51 36 21 53 38 21 50 35 20 51 36 21 53 38 21 51 36 21 54 39 25 55 40 15 57 42 14 56 41 36 58 29 18 55 40 15 56 41 36 58 29 18 56 41 36 39 31 25 59 30 37 61 31 39 60 43 38 62 44 40 59 30 37 60 43 38 62 44 40 60 43 38 63 45 41 64 46 42 62 44 40 63 45 41 65 47 14 67 49 14 66 48 36 68 50 36 65 47 14 66 48 36 68 50 36 66 48 36 69 51 25 70 43 43 61 31 39 71 52 44 72 53 45 70 43 43 71 52 44 72 53 45 71 52 44 73 54 46</p>
                </triangles>
            </mesh>
        </geometry>
    </library_geometries>
    <library_visual_scenes>
        <visual_scene id="Scene" name="Scene">
            <node id="JOBJ_0" sid="JOBJ_0" name="JOBJ_0" type="JOINT">
                <matrix>1 0 0 0 0 5.9604638E-08 0.9999998 4.999999 0 -0.9999998 5.9604638E-08 -2.8421703E-14 0 0 0 1</matrix>
            </node>
            <node id="Joint_0_Object_0" sid="Joint_0_Object_0" name="Joint_0_Object_0">
                <instance_geometry url="#Joint_0_Object_0-geometry">
                    <bind_material>
                        <technique_common>
                            <instance_material target="#Joint_0_Object_0_Material_0" symbol="Joint_0_Object_0_Material_0" />
                        </technique_common>
                    </bind_material>
                </instance_geometry>
            </node>
            <node id="Joint_0_Object_1" sid="Joint_0_Object_1" name="Joint_0_Object_1">
                <instance_geometry url="#Joint_0_Object_1-geometry">
                    <bind_material>
                        <technique_common>
                            <instance_material target="#Joint_0_Object_1_Material_1" symbol="Joint_0_Object_1_Material_1" />
                        </technique_common>
                    </bind_material>
                </instance_geometry>
            </node>
        </visual_scene>
    </library_visual_scenes>
    <scene>
        <instance_visual_scene url="#Scene" />
    </scene>
</COLLADA>